# Blender v2.93.6 OBJ File: 'babel.blend'
# www.blender.org
mtllib babel2.mtl
o 실린더
v -2.228483 -0.289351 -0.172765
v 2.167155 -0.355856 -0.172765
v -2.228911 -0.317662 -0.169577
v 2.166726 -0.384167 -0.169577
v -2.229323 -0.344886 -0.160136
v 2.166315 -0.411390 -0.160136
v -2.229702 -0.369975 -0.144805
v 2.165935 -0.436479 -0.144805
v -2.230035 -0.391965 -0.124173
v 2.165602 -0.458469 -0.124173
v -2.230308 -0.410012 -0.099032
v 2.165329 -0.476517 -0.099032
v -2.230511 -0.423423 -0.070349
v 2.165126 -0.489927 -0.070349
v -2.230636 -0.431681 -0.039227
v 2.165001 -0.498185 -0.039227
v -2.230678 -0.434469 -0.006861
v 2.164959 -0.500973 -0.006861
v -2.230636 -0.431681 0.025506
v 2.165001 -0.498185 0.025506
v -2.230511 -0.423423 0.056628
v 2.165126 -0.489927 0.056628
v -2.230308 -0.410012 0.085311
v 2.165329 -0.476517 0.085311
v -2.230035 -0.391965 0.110451
v 2.165602 -0.458469 0.110451
v -2.229702 -0.369975 0.131084
v 2.165935 -0.436479 0.131084
v -2.229323 -0.344886 0.146415
v 2.166315 -0.411390 0.146415
v -2.228911 -0.317662 0.155856
v 2.166726 -0.384167 0.155856
v -2.228483 -0.289351 0.159044
v 2.167155 -0.355856 0.159044
v -2.228054 -0.261040 0.155856
v 2.167583 -0.327544 0.155856
v -2.227643 -0.233817 0.146415
v 2.167995 -0.300321 0.146415
v -2.227263 -0.208728 0.131084
v 2.168375 -0.275232 0.131084
v -2.226930 -0.186738 0.110451
v 2.168707 -0.253242 0.110451
v -2.226657 -0.168690 0.085311
v 2.168980 -0.235195 0.085311
v -2.226454 -0.155280 0.056628
v 2.169183 -0.221784 0.056628
v -2.226329 -0.147022 0.025506
v 2.169308 -0.213526 0.025506
v -2.226287 -0.144234 -0.006861
v 2.169350 -0.210738 -0.006861
v -2.226329 -0.147022 -0.039227
v 2.169308 -0.213526 -0.039227
v -2.226454 -0.155280 -0.070349
v 2.169183 -0.221784 -0.070349
v -2.226657 -0.168690 -0.099032
v 2.168980 -0.235194 -0.099032
v -2.226930 -0.186738 -0.124173
v 2.168707 -0.253242 -0.124173
v -2.227263 -0.208728 -0.144805
v 2.168375 -0.275232 -0.144805
v -2.227643 -0.233817 -0.160136
v 2.167995 -0.300321 -0.160136
v -2.228054 -0.261040 -0.169577
v 2.167583 -0.327544 -0.169577
vt 1.000000 0.500000
vt 1.000000 1.000000
vt 0.968750 1.000000
vt 0.968750 0.500000
vt 0.937500 1.000000
vt 0.937500 0.500000
vt 0.906250 1.000000
vt 0.906250 0.500000
vt 0.875000 1.000000
vt 0.875000 0.500000
vt 0.843750 1.000000
vt 0.843750 0.500000
vt 0.812500 1.000000
vt 0.812500 0.500000
vt 0.781250 1.000000
vt 0.781250 0.500000
vt 0.750000 1.000000
vt 0.750000 0.500000
vt 0.718750 1.000000
vt 0.718750 0.500000
vt 0.687500 1.000000
vt 0.687500 0.500000
vt 0.656250 1.000000
vt 0.656250 0.500000
vt 0.625000 1.000000
vt 0.625000 0.500000
vt 0.593750 1.000000
vt 0.593750 0.500000
vt 0.562500 1.000000
vt 0.562500 0.500000
vt 0.531250 1.000000
vt 0.531250 0.500000
vt 0.500000 1.000000
vt 0.500000 0.500000
vt 0.468750 1.000000
vt 0.468750 0.500000
vt 0.437500 1.000000
vt 0.437500 0.500000
vt 0.406250 1.000000
vt 0.406250 0.500000
vt 0.375000 1.000000
vt 0.375000 0.500000
vt 0.343750 1.000000
vt 0.343750 0.500000
vt 0.312500 1.000000
vt 0.312500 0.500000
vt 0.281250 1.000000
vt 0.281250 0.500000
vt 0.250000 1.000000
vt 0.250000 0.500000
vt 0.218750 1.000000
vt 0.218750 0.500000
vt 0.187500 1.000000
vt 0.187500 0.500000
vt 0.156250 1.000000
vt 0.156250 0.500000
vt 0.125000 1.000000
vt 0.125000 0.500000
vt 0.093750 1.000000
vt 0.093750 0.500000
vt 0.062500 1.000000
vt 0.062500 0.500000
vt 0.296822 0.485388
vt 0.250000 0.490000
vt 0.203178 0.485388
vt 0.158156 0.471731
vt 0.116663 0.449553
vt 0.080294 0.419706
vt 0.050447 0.383337
vt 0.028269 0.341844
vt 0.014612 0.296822
vt 0.010000 0.250000
vt 0.014612 0.203178
vt 0.028269 0.158156
vt 0.050447 0.116663
vt 0.080294 0.080294
vt 0.116663 0.050447
vt 0.158156 0.028269
vt 0.203178 0.014612
vt 0.250000 0.010000
vt 0.296822 0.014612
vt 0.341844 0.028269
vt 0.383337 0.050447
vt 0.419706 0.080294
vt 0.449553 0.116663
vt 0.471731 0.158156
vt 0.485388 0.203178
vt 0.490000 0.250000
vt 0.485388 0.296822
vt 0.471731 0.341844
vt 0.449553 0.383337
vt 0.419706 0.419706
vt 0.383337 0.449553
vt 0.341844 0.471731
vt 0.031250 1.000000
vt 0.031250 0.500000
vt 0.000000 1.000000
vt 0.000000 0.500000
vt 0.750000 0.490000
vt 0.796822 0.485388
vt 0.841844 0.471731
vt 0.883337 0.449553
vt 0.919706 0.419706
vt 0.949553 0.383337
vt 0.971731 0.341844
vt 0.985388 0.296822
vt 0.990000 0.250000
vt 0.985388 0.203178
vt 0.971731 0.158156
vt 0.949553 0.116663
vt 0.919706 0.080294
vt 0.883337 0.050447
vt 0.841844 0.028269
vt 0.796822 0.014612
vt 0.750000 0.010000
vt 0.703178 0.014612
vt 0.658156 0.028269
vt 0.616663 0.050447
vt 0.580294 0.080294
vt 0.550447 0.116663
vt 0.528269 0.158156
vt 0.514612 0.203178
vt 0.510000 0.250000
vt 0.514612 0.296822
vt 0.528269 0.341844
vt 0.550447 0.383337
vt 0.580294 0.419706
vt 0.616663 0.449553
vt 0.658156 0.471731
vt 0.703178 0.485388
vn -0.0017 -0.1119 -0.9937
vn -0.0050 -0.3276 -0.9448
vn -0.0079 -0.5213 -0.8533
vn -0.0104 -0.6841 -0.7293
vn -0.0123 -0.8122 -0.5832
vn -0.0137 -0.9058 -0.4236
vn -0.0146 -0.9664 -0.2565
vn -0.0151 -0.9962 -0.0858
vn -0.0151 -0.9962 0.0858
vn -0.0146 -0.9664 0.2565
vn -0.0137 -0.9058 0.4236
vn -0.0123 -0.8122 0.5832
vn -0.0104 -0.6841 0.7293
vn -0.0079 -0.5213 0.8533
vn -0.0050 -0.3276 0.9448
vn -0.0017 -0.1119 0.9937
vn 0.0017 0.1119 0.9937
vn 0.0050 0.3276 0.9448
vn 0.0079 0.5213 0.8533
vn 0.0104 0.6841 0.7293
vn 0.0123 0.8122 0.5832
vn 0.0137 0.9058 0.4236
vn 0.0146 0.9664 0.2565
vn 0.0151 0.9962 0.0858
vn 0.0151 0.9962 -0.0858
vn 0.0146 0.9664 -0.2565
vn 0.0137 0.9058 -0.4236
vn 0.0123 0.8122 -0.5832
vn 0.0104 0.6841 -0.7293
vn 0.0079 0.5213 -0.8533
vn 0.9999 -0.0151 -0.0000
vn 0.0050 0.3276 -0.9448
vn 0.0017 0.1119 -0.9937
vn -0.9999 0.0151 0.0000
usemtl None
s off
f 1/1/1 2/2/1 4/3/1 3/4/1
f 3/4/2 4/3/2 6/5/2 5/6/2
f 5/6/3 6/5/3 8/7/3 7/8/3
f 7/8/4 8/7/4 10/9/4 9/10/4
f 9/10/5 10/9/5 12/11/5 11/12/5
f 11/12/6 12/11/6 14/13/6 13/14/6
f 13/14/7 14/13/7 16/15/7 15/16/7
f 15/16/8 16/15/8 18/17/8 17/18/8
f 17/18/9 18/17/9 20/19/9 19/20/9
f 19/20/10 20/19/10 22/21/10 21/22/10
f 21/22/11 22/21/11 24/23/11 23/24/11
f 23/24/12 24/23/12 26/25/12 25/26/12
f 25/26/13 26/25/13 28/27/13 27/28/13
f 27/28/14 28/27/14 30/29/14 29/30/14
f 29/30/15 30/29/15 32/31/15 31/32/15
f 31/32/16 32/31/16 34/33/16 33/34/16
f 33/34/17 34/33/17 36/35/17 35/36/17
f 35/36/18 36/35/18 38/37/18 37/38/18
f 37/38/19 38/37/19 40/39/19 39/40/19
f 39/40/20 40/39/20 42/41/20 41/42/20
f 41/42/21 42/41/21 44/43/21 43/44/21
f 43/44/22 44/43/22 46/45/22 45/46/22
f 45/46/23 46/45/23 48/47/23 47/48/23
f 47/48/24 48/47/24 50/49/24 49/50/24
f 49/50/25 50/49/25 52/51/25 51/52/25
f 51/52/26 52/51/26 54/53/26 53/54/26
f 53/54/27 54/53/27 56/55/27 55/56/27
f 55/56/28 56/55/28 58/57/28 57/58/28
f 57/58/29 58/57/29 60/59/29 59/60/29
f 59/60/30 60/59/30 62/61/30 61/62/30
f 4/63/31 2/64/31 64/65/31 62/66/31 60/67/31 58/68/31 56/69/31 54/70/31 52/71/31 50/72/31 48/73/31 46/74/31 44/75/31 42/76/31 40/77/31 38/78/31 36/79/31 34/80/31 32/81/31 30/82/31 28/83/31 26/84/31 24/85/31 22/86/31 20/87/31 18/88/31 16/89/31 14/90/31 12/91/31 10/92/31 8/93/31 6/94/31
f 61/62/32 62/61/32 64/95/32 63/96/32
f 63/96/33 64/95/33 2/97/33 1/98/33
f 1/99/34 3/100/34 5/101/34 7/102/34 9/103/34 11/104/34 13/105/34 15/106/34 17/107/34 19/108/34 21/109/34 23/110/34 25/111/34 27/112/34 29/113/34 31/114/34 33/115/34 35/116/34 37/117/34 39/118/34 41/119/34 43/120/34 45/121/34 47/122/34 49/123/34 51/124/34 53/125/34 55/126/34 57/127/34 59/128/34 61/129/34 63/130/34
o 실린더.001
v -2.581866 -0.269431 -1.036107
v -2.305431 -0.272067 -1.036107
v -2.583726 -0.464512 -1.016892
v -2.307291 -0.467149 -1.016892
v -2.585515 -0.652097 -0.959987
v -2.309080 -0.654733 -0.959987
v -2.587164 -0.824976 -0.867577
v -2.310729 -0.827612 -0.867577
v -2.588609 -0.976506 -0.743214
v -2.312174 -0.979142 -0.743214
v -2.589795 -1.100863 -0.591677
v -2.313360 -1.103499 -0.591677
v -2.590676 -1.193268 -0.418790
v -2.314241 -1.195905 -0.418790
v -2.591219 -1.250172 -0.231197
v -2.314784 -1.252808 -0.231197
v -2.591402 -1.269385 -0.036107
v -2.314967 -1.272022 -0.036107
v -2.591219 -1.250172 0.158983
v -2.314784 -1.252808 0.158983
v -2.590676 -1.193269 0.346576
v -2.314241 -1.195905 0.346576
v -2.589795 -1.100863 0.519463
v -2.313360 -1.103499 0.519463
v -2.588609 -0.976506 0.671000
v -2.312174 -0.979142 0.671000
v -2.587164 -0.824976 0.795363
v -2.310729 -0.827612 0.795363
v -2.585515 -0.652097 0.887773
v -2.309080 -0.654733 0.887773
v -2.583726 -0.464512 0.944678
v -2.307291 -0.467149 0.944678
v -2.581866 -0.269431 0.963893
v -2.305431 -0.272067 0.963893
v -2.580005 -0.074350 0.944678
v -2.303570 -0.076986 0.944678
v -2.578216 0.113235 0.887773
v -2.301781 0.110599 0.887773
v -2.576567 0.286114 0.795363
v -2.300133 0.283478 0.795363
v -2.575122 0.437644 0.671000
v -2.298687 0.435007 0.671000
v -2.573936 0.562001 0.519463
v -2.297501 0.559364 0.519463
v -2.573055 0.654407 0.346577
v -2.296620 0.651770 0.346577
v -2.572512 0.711310 0.158983
v -2.296077 0.708673 0.158983
v -2.572329 0.730524 -0.036107
v -2.295894 0.727887 -0.036107
v -2.572512 0.711310 -0.231197
v -2.296077 0.708673 -0.231197
v -2.573055 0.654406 -0.418791
v -2.296620 0.651770 -0.418791
v -2.573936 0.562001 -0.591677
v -2.297501 0.559365 -0.591677
v -2.575122 0.437644 -0.743214
v -2.298687 0.435007 -0.743214
v -2.576567 0.286114 -0.867577
v -2.300133 0.283478 -0.867577
v -2.578216 0.113235 -0.959987
v -2.301781 0.110599 -0.959987
v -2.580005 -0.074350 -1.016892
v -2.303570 -0.076986 -1.016892
vt 1.000000 0.500000
vt 1.000000 1.000000
vt 0.968750 1.000000
vt 0.968750 0.500000
vt 0.937500 1.000000
vt 0.937500 0.500000
vt 0.906250 1.000000
vt 0.906250 0.500000
vt 0.875000 1.000000
vt 0.875000 0.500000
vt 0.843750 1.000000
vt 0.843750 0.500000
vt 0.812500 1.000000
vt 0.812500 0.500000
vt 0.781250 1.000000
vt 0.781250 0.500000
vt 0.750000 1.000000
vt 0.750000 0.500000
vt 0.718750 1.000000
vt 0.718750 0.500000
vt 0.687500 1.000000
vt 0.687500 0.500000
vt 0.656250 1.000000
vt 0.656250 0.500000
vt 0.625000 1.000000
vt 0.625000 0.500000
vt 0.593750 1.000000
vt 0.593750 0.500000
vt 0.562500 1.000000
vt 0.562500 0.500000
vt 0.531250 1.000000
vt 0.531250 0.500000
vt 0.500000 1.000000
vt 0.500000 0.500000
vt 0.468750 1.000000
vt 0.468750 0.500000
vt 0.437500 1.000000
vt 0.437500 0.500000
vt 0.406250 1.000000
vt 0.406250 0.500000
vt 0.375000 1.000000
vt 0.375000 0.500000
vt 0.343750 1.000000
vt 0.343750 0.500000
vt 0.312500 1.000000
vt 0.312500 0.500000
vt 0.281250 1.000000
vt 0.281250 0.500000
vt 0.250000 1.000000
vt 0.250000 0.500000
vt 0.218750 1.000000
vt 0.218750 0.500000
vt 0.187500 1.000000
vt 0.187500 0.500000
vt 0.156250 1.000000
vt 0.156250 0.500000
vt 0.125000 1.000000
vt 0.125000 0.500000
vt 0.093750 1.000000
vt 0.093750 0.500000
vt 0.062500 1.000000
vt 0.062500 0.500000
vt 0.296822 0.485388
vt 0.250000 0.490000
vt 0.203178 0.485388
vt 0.158156 0.471731
vt 0.116663 0.449553
vt 0.080294 0.419706
vt 0.050447 0.383337
vt 0.028269 0.341844
vt 0.014612 0.296822
vt 0.010000 0.250000
vt 0.014612 0.203178
vt 0.028269 0.158156
vt 0.050447 0.116663
vt 0.080294 0.080294
vt 0.116663 0.050447
vt 0.158156 0.028269
vt 0.203178 0.014612
vt 0.250000 0.010000
vt 0.296822 0.014612
vt 0.341844 0.028269
vt 0.383337 0.050447
vt 0.419706 0.080294
vt 0.449553 0.116663
vt 0.471731 0.158156
vt 0.485388 0.203178
vt 0.490000 0.250000
vt 0.485388 0.296822
vt 0.471731 0.341844
vt 0.449553 0.383337
vt 0.419706 0.419706
vt 0.383337 0.449553
vt 0.341844 0.471731
vt 0.031250 1.000000
vt 0.031250 0.500000
vt 0.000000 1.000000
vt 0.000000 0.500000
vt 0.750000 0.490000
vt 0.796822 0.485388
vt 0.841844 0.471731
vt 0.883337 0.449553
vt 0.919706 0.419706
vt 0.949553 0.383337
vt 0.971731 0.341844
vt 0.985388 0.296822
vt 0.990000 0.250000
vt 0.985388 0.203178
vt 0.971731 0.158156
vt 0.949553 0.116663
vt 0.919706 0.080294
vt 0.883337 0.050447
vt 0.841844 0.028269
vt 0.796822 0.014612
vt 0.750000 0.010000
vt 0.703178 0.014612
vt 0.658156 0.028269
vt 0.616663 0.050447
vt 0.580294 0.080294
vt 0.550447 0.116663
vt 0.528269 0.158156
vt 0.514612 0.203178
vt 0.510000 0.250000
vt 0.514612 0.296822
vt 0.528269 0.341844
vt 0.550447 0.383337
vt 0.580294 0.419706
vt 0.616663 0.449553
vt 0.658156 0.471731
vt 0.703178 0.485388
vn -0.0009 -0.0980 -0.9952
vn -0.0028 -0.2903 -0.9569
vn -0.0045 -0.4714 -0.8819
vn -0.0060 -0.6344 -0.7730
vn -0.0074 -0.7730 -0.6344
vn -0.0084 -0.8819 -0.4714
vn -0.0091 -0.9569 -0.2903
vn -0.0095 -0.9951 -0.0980
vn -0.0095 -0.9951 0.0980
vn -0.0091 -0.9569 0.2903
vn -0.0084 -0.8819 0.4714
vn -0.0074 -0.7730 0.6344
vn -0.0060 -0.6344 0.7730
vn -0.0045 -0.4714 0.8819
vn -0.0028 -0.2903 0.9569
vn -0.0009 -0.0980 0.9952
vn 0.0009 0.0980 0.9952
vn 0.0028 0.2903 0.9569
vn 0.0045 0.4714 0.8819
vn 0.0060 0.6344 0.7730
vn 0.0074 0.7730 0.6344
vn 0.0084 0.8819 0.4714
vn 0.0091 0.9569 0.2903
vn 0.0095 0.9951 0.0980
vn 0.0095 0.9951 -0.0980
vn 0.0091 0.9569 -0.2903
vn 0.0084 0.8819 -0.4714
vn 0.0074 0.7730 -0.6344
vn 0.0060 0.6344 -0.7730
vn 0.0045 0.4714 -0.8819
vn 1.0000 -0.0095 -0.0000
vn 0.0028 0.2903 -0.9569
vn 0.0009 0.0980 -0.9952
vn -1.0000 0.0095 -0.0000
usemtl None
s off
f 65/131/35 66/132/35 68/133/35 67/134/35
f 67/134/36 68/133/36 70/135/36 69/136/36
f 69/136/37 70/135/37 72/137/37 71/138/37
f 71/138/38 72/137/38 74/139/38 73/140/38
f 73/140/39 74/139/39 76/141/39 75/142/39
f 75/142/40 76/141/40 78/143/40 77/144/40
f 77/144/41 78/143/41 80/145/41 79/146/41
f 79/146/42 80/145/42 82/147/42 81/148/42
f 81/148/43 82/147/43 84/149/43 83/150/43
f 83/150/44 84/149/44 86/151/44 85/152/44
f 85/152/45 86/151/45 88/153/45 87/154/45
f 87/154/46 88/153/46 90/155/46 89/156/46
f 89/156/47 90/155/47 92/157/47 91/158/47
f 91/158/48 92/157/48 94/159/48 93/160/48
f 93/160/49 94/159/49 96/161/49 95/162/49
f 95/162/50 96/161/50 98/163/50 97/164/50
f 97/164/51 98/163/51 100/165/51 99/166/51
f 99/166/52 100/165/52 102/167/52 101/168/52
f 101/168/53 102/167/53 104/169/53 103/170/53
f 103/170/54 104/169/54 106/171/54 105/172/54
f 105/172/55 106/171/55 108/173/55 107/174/55
f 107/174/56 108/173/56 110/175/56 109/176/56
f 109/176/57 110/175/57 112/177/57 111/178/57
f 111/178/58 112/177/58 114/179/58 113/180/58
f 113/180/59 114/179/59 116/181/59 115/182/59
f 115/182/60 116/181/60 118/183/60 117/184/60
f 117/184/61 118/183/61 120/185/61 119/186/61
f 119/186/62 120/185/62 122/187/62 121/188/62
f 121/188/63 122/187/63 124/189/63 123/190/63
f 123/190/64 124/189/64 126/191/64 125/192/64
f 68/193/65 66/194/65 128/195/65 126/196/65 124/197/65 122/198/65 120/199/65 118/200/65 116/201/65 114/202/65 112/203/65 110/204/65 108/205/65 106/206/65 104/207/65 102/208/65 100/209/65 98/210/65 96/211/65 94/212/65 92/213/65 90/214/65 88/215/65 86/216/65 84/217/65 82/218/65 80/219/65 78/220/65 76/221/65 74/222/65 72/223/65 70/224/65
f 125/192/66 126/191/66 128/225/66 127/226/66
f 127/226/67 128/225/67 66/227/67 65/228/67
f 65/229/68 67/230/68 69/231/68 71/232/68 73/233/68 75/234/68 77/235/68 79/236/68 81/237/68 83/238/68 85/239/68 87/240/68 89/241/68 91/242/68 93/243/68 95/244/68 97/245/68 99/246/68 101/247/68 103/248/68 105/249/68 107/250/68 109/251/68 111/252/68 113/253/68 115/254/68 117/255/68 119/256/68 121/257/68 123/258/68 125/259/68 127/260/68
o 실린더.002
v 2.043686 -0.424979 -0.997539
v 2.320121 -0.427615 -0.997539
v 2.041826 -0.620060 -0.978324
v 2.318260 -0.622696 -0.978324
v 2.040036 -0.807645 -0.921418
v 2.316471 -0.810281 -0.921418
v 2.038388 -0.980524 -0.829009
v 2.314822 -0.983160 -0.829009
v 2.036943 -1.132053 -0.704646
v 2.313377 -1.134689 -0.704646
v 2.035757 -1.256410 -0.553109
v 2.312191 -1.259047 -0.553109
v 2.034875 -1.348816 -0.380222
v 2.311310 -1.351452 -0.380222
v 2.034333 -1.405719 -0.192629
v 2.310767 -1.408355 -0.192629
v 2.034149 -1.424933 0.002461
v 2.310584 -1.427569 0.002461
v 2.034333 -1.405719 0.197551
v 2.310767 -1.408355 0.197551
v 2.034875 -1.348816 0.385144
v 2.311310 -1.351452 0.385144
v 2.035757 -1.256410 0.558031
v 2.312191 -1.259047 0.558031
v 2.036943 -1.132053 0.709568
v 2.313377 -1.134689 0.709568
v 2.038388 -0.980523 0.833931
v 2.314822 -0.983160 0.833931
v 2.040036 -0.807645 0.926341
v 2.316471 -0.810281 0.926341
v 2.041826 -0.620060 0.983246
v 2.318260 -0.622696 0.983246
v 2.043686 -0.424978 1.002461
v 2.320121 -0.427615 1.002461
v 2.045547 -0.229897 0.983246
v 2.321981 -0.232533 0.983246
v 2.047335 -0.042313 0.926341
v 2.323770 -0.044949 0.926341
v 2.048984 0.130566 0.833931
v 2.325419 0.127930 0.833931
v 2.050429 0.282096 0.709568
v 2.326864 0.279460 0.709568
v 2.051615 0.406453 0.558031
v 2.328050 0.403817 0.558031
v 2.052497 0.498859 0.385145
v 2.328931 0.496223 0.385145
v 2.053039 0.555762 0.197551
v 2.329474 0.553126 0.197551
v 2.053222 0.574976 0.002461
v 2.329657 0.572340 0.002461
v 2.053039 0.555762 -0.192629
v 2.329474 0.553126 -0.192629
v 2.052497 0.498859 -0.380223
v 2.328931 0.496223 -0.380223
v 2.051615 0.406453 -0.553109
v 2.328050 0.403817 -0.553109
v 2.050429 0.282096 -0.704646
v 2.326864 0.279460 -0.704646
v 2.048984 0.130566 -0.829009
v 2.325419 0.127930 -0.829009
v 2.047335 -0.042313 -0.921418
v 2.323770 -0.044949 -0.921418
v 2.045547 -0.229897 -0.978324
v 2.321981 -0.232534 -0.978324
vt 1.000000 0.500000
vt 1.000000 1.000000
vt 0.968750 1.000000
vt 0.968750 0.500000
vt 0.937500 1.000000
vt 0.937500 0.500000
vt 0.906250 1.000000
vt 0.906250 0.500000
vt 0.875000 1.000000
vt 0.875000 0.500000
vt 0.843750 1.000000
vt 0.843750 0.500000
vt 0.812500 1.000000
vt 0.812500 0.500000
vt 0.781250 1.000000
vt 0.781250 0.500000
vt 0.750000 1.000000
vt 0.750000 0.500000
vt 0.718750 1.000000
vt 0.718750 0.500000
vt 0.687500 1.000000
vt 0.687500 0.500000
vt 0.656250 1.000000
vt 0.656250 0.500000
vt 0.625000 1.000000
vt 0.625000 0.500000
vt 0.593750 1.000000
vt 0.593750 0.500000
vt 0.562500 1.000000
vt 0.562500 0.500000
vt 0.531250 1.000000
vt 0.531250 0.500000
vt 0.500000 1.000000
vt 0.500000 0.500000
vt 0.468750 1.000000
vt 0.468750 0.500000
vt 0.437500 1.000000
vt 0.437500 0.500000
vt 0.406250 1.000000
vt 0.406250 0.500000
vt 0.375000 1.000000
vt 0.375000 0.500000
vt 0.343750 1.000000
vt 0.343750 0.500000
vt 0.312500 1.000000
vt 0.312500 0.500000
vt 0.281250 1.000000
vt 0.281250 0.500000
vt 0.250000 1.000000
vt 0.250000 0.500000
vt 0.218750 1.000000
vt 0.218750 0.500000
vt 0.187500 1.000000
vt 0.187500 0.500000
vt 0.156250 1.000000
vt 0.156250 0.500000
vt 0.125000 1.000000
vt 0.125000 0.500000
vt 0.093750 1.000000
vt 0.093750 0.500000
vt 0.062500 1.000000
vt 0.062500 0.500000
vt 0.296822 0.485388
vt 0.250000 0.490000
vt 0.203178 0.485388
vt 0.158156 0.471731
vt 0.116663 0.449553
vt 0.080294 0.419706
vt 0.050447 0.383337
vt 0.028269 0.341844
vt 0.014612 0.296822
vt 0.010000 0.250000
vt 0.014612 0.203178
vt 0.028269 0.158156
vt 0.050447 0.116663
vt 0.080294 0.080294
vt 0.116663 0.050447
vt 0.158156 0.028269
vt 0.203178 0.014612
vt 0.250000 0.010000
vt 0.296822 0.014612
vt 0.341844 0.028269
vt 0.383337 0.050447
vt 0.419706 0.080294
vt 0.449553 0.116663
vt 0.471731 0.158156
vt 0.485388 0.203178
vt 0.490000 0.250000
vt 0.485388 0.296822
vt 0.471731 0.341844
vt 0.449553 0.383337
vt 0.419706 0.419706
vt 0.383337 0.449553
vt 0.341844 0.471731
vt 0.031250 1.000000
vt 0.031250 0.500000
vt 0.000000 1.000000
vt 0.000000 0.500000
vt 0.750000 0.490000
vt 0.796822 0.485388
vt 0.841844 0.471731
vt 0.883337 0.449553
vt 0.919706 0.419706
vt 0.949553 0.383337
vt 0.971731 0.341844
vt 0.985388 0.296822
vt 0.990000 0.250000
vt 0.985388 0.203178
vt 0.971731 0.158156
vt 0.949553 0.116663
vt 0.919706 0.080294
vt 0.883337 0.050447
vt 0.841844 0.028269
vt 0.796822 0.014612
vt 0.750000 0.010000
vt 0.703178 0.014612
vt 0.658156 0.028269
vt 0.616663 0.050447
vt 0.580294 0.080294
vt 0.550447 0.116663
vt 0.528269 0.158156
vt 0.514612 0.203178
vt 0.510000 0.250000
vt 0.514612 0.296822
vt 0.528269 0.341844
vt 0.550447 0.383337
vt 0.580294 0.419706
vt 0.616663 0.449553
vt 0.658156 0.471731
vt 0.703178 0.485388
vn -0.0009 -0.0980 -0.9952
vn -0.0028 -0.2903 -0.9569
vn -0.0045 -0.4714 -0.8819
vn -0.0060 -0.6344 -0.7730
vn -0.0074 -0.7730 -0.6344
vn -0.0084 -0.8819 -0.4714
vn -0.0091 -0.9569 -0.2903
vn -0.0095 -0.9951 -0.0980
vn -0.0095 -0.9951 0.0980
vn -0.0091 -0.9569 0.2903
vn -0.0084 -0.8819 0.4714
vn -0.0074 -0.7730 0.6344
vn -0.0060 -0.6344 0.7730
vn -0.0045 -0.4714 0.8819
vn -0.0028 -0.2903 0.9569
vn -0.0009 -0.0980 0.9952
vn 0.0009 0.0980 0.9952
vn 0.0028 0.2903 0.9569
vn 0.0045 0.4714 0.8819
vn 0.0060 0.6344 0.7730
vn 0.0074 0.7730 0.6344
vn 0.0084 0.8819 0.4714
vn 0.0091 0.9569 0.2903
vn 0.0095 0.9951 0.0980
vn 0.0095 0.9951 -0.0980
vn 0.0091 0.9569 -0.2903
vn 0.0084 0.8819 -0.4714
vn 0.0074 0.7730 -0.6344
vn 0.0060 0.6344 -0.7730
vn 0.0045 0.4714 -0.8819
vn 1.0000 -0.0095 -0.0000
vn 0.0028 0.2903 -0.9569
vn 0.0009 0.0980 -0.9952
vn -1.0000 0.0095 0.0000
usemtl None
s off
f 129/261/69 130/262/69 132/263/69 131/264/69
f 131/264/70 132/263/70 134/265/70 133/266/70
f 133/266/71 134/265/71 136/267/71 135/268/71
f 135/268/72 136/267/72 138/269/72 137/270/72
f 137/270/73 138/269/73 140/271/73 139/272/73
f 139/272/74 140/271/74 142/273/74 141/274/74
f 141/274/75 142/273/75 144/275/75 143/276/75
f 143/276/76 144/275/76 146/277/76 145/278/76
f 145/278/77 146/277/77 148/279/77 147/280/77
f 147/280/78 148/279/78 150/281/78 149/282/78
f 149/282/79 150/281/79 152/283/79 151/284/79
f 151/284/80 152/283/80 154/285/80 153/286/80
f 153/286/81 154/285/81 156/287/81 155/288/81
f 155/288/82 156/287/82 158/289/82 157/290/82
f 157/290/83 158/289/83 160/291/83 159/292/83
f 159/292/84 160/291/84 162/293/84 161/294/84
f 161/294/85 162/293/85 164/295/85 163/296/85
f 163/296/86 164/295/86 166/297/86 165/298/86
f 165/298/87 166/297/87 168/299/87 167/300/87
f 167/300/88 168/299/88 170/301/88 169/302/88
f 169/302/89 170/301/89 172/303/89 171/304/89
f 171/304/90 172/303/90 174/305/90 173/306/90
f 173/306/91 174/305/91 176/307/91 175/308/91
f 175/308/92 176/307/92 178/309/92 177/310/92
f 177/310/93 178/309/93 180/311/93 179/312/93
f 179/312/94 180/311/94 182/313/94 181/314/94
f 181/314/95 182/313/95 184/315/95 183/316/95
f 183/316/96 184/315/96 186/317/96 185/318/96
f 185/318/97 186/317/97 188/319/97 187/320/97
f 187/320/98 188/319/98 190/321/98 189/322/98
f 132/323/99 130/324/99 192/325/99 190/326/99 188/327/99 186/328/99 184/329/99 182/330/99 180/331/99 178/332/99 176/333/99 174/334/99 172/335/99 170/336/99 168/337/99 166/338/99 164/339/99 162/340/99 160/341/99 158/342/99 156/343/99 154/344/99 152/345/99 150/346/99 148/347/99 146/348/99 144/349/99 142/350/99 140/351/99 138/352/99 136/353/99 134/354/99
f 189/322/100 190/321/100 192/355/100 191/356/100
f 191/356/101 192/355/101 130/357/101 129/358/101
f 129/359/102 131/360/102 133/361/102 135/362/102 137/363/102 139/364/102 141/365/102 143/366/102 145/367/102 147/368/102 149/369/102 151/370/102 153/371/102 155/372/102 157/373/102 159/374/102 161/375/102 163/376/102 165/377/102 167/378/102 169/379/102 171/380/102 173/381/102 175/382/102 177/383/102 179/384/102 181/385/102 183/386/102 185/387/102 187/388/102 189/389/102 191/390/102
