# Blender v2.93.6 OBJ File: ''
# www.blender.org
mtllib babel.mtl
o 실린더
v 0.663208 -0.320977 -1.427371
v 0.663208 0.983312 -1.427371
v 0.840325 -0.320977 -1.414840
v 0.840325 0.983312 -1.414840
v 1.010636 -0.320977 -1.377730
v 1.010636 0.983312 -1.377730
v 1.167596 -0.320977 -1.317465
v 1.167596 0.983312 -1.317465
v 1.305172 -0.320977 -1.236362
v 1.305172 0.983312 -1.236362
v 1.418078 -0.320977 -1.137539
v 1.418078 0.983312 -1.137539
v 1.501974 -0.320977 -1.024792
v 1.501974 0.983312 -1.024792
v 1.553638 -0.320977 -0.902454
v 1.553638 0.983312 -0.902454
v 1.571082 -0.320977 -0.775227
v 1.571082 0.983312 -0.775227
v 1.553638 -0.320977 -0.648000
v 1.553638 0.983312 -0.648000
v 1.501975 -0.320977 -0.525662
v 1.501975 0.983312 -0.525662
v 1.418078 -0.320977 -0.412915
v 1.418078 0.983312 -0.412915
v 1.305172 -0.320977 -0.314091
v 1.305172 0.983312 -0.314091
v 1.167596 -0.320977 -0.232988
v 1.167596 0.983312 -0.232988
v 1.010636 -0.320977 -0.172724
v 1.010636 0.983312 -0.172724
v 0.840325 -0.320977 -0.135613
v 0.840325 0.983312 -0.135613
v 0.663208 -0.320977 -0.123082
v 0.663208 0.983312 -0.123082
v 0.486090 -0.320977 -0.135613
v 0.486090 0.983312 -0.135613
v 0.315779 -0.320977 -0.172724
v 0.315779 0.983312 -0.172724
v 0.158819 -0.320977 -0.232989
v 0.158819 0.983312 -0.232989
v 0.021243 -0.320977 -0.314091
v 0.021243 0.983312 -0.314091
v -0.091662 -0.320977 -0.412915
v -0.091662 0.983312 -0.412915
v -0.175559 -0.320977 -0.525662
v -0.175559 0.983312 -0.525662
v -0.227222 -0.320977 -0.648000
v -0.227222 0.983312 -0.648000
v -0.244667 -0.320977 -0.775227
v -0.244667 0.983312 -0.775227
v -0.227222 -0.320977 -0.902454
v -0.227222 0.983312 -0.902454
v -0.175559 -0.320977 -1.024792
v -0.175559 0.983312 -1.024792
v -0.091663 -0.320977 -1.137539
v -0.091663 0.983312 -1.137539
v 0.021243 -0.320977 -1.236362
v 0.021243 0.983312 -1.236362
v 0.158819 -0.320977 -1.317465
v 0.158819 0.983312 -1.317465
v 0.315779 -0.320977 -1.377730
v 0.315779 0.983312 -1.377730
v 0.486090 -0.320977 -1.414840
v 0.486090 0.983312 -1.414840
vt 1.000000 0.500000
vt 1.000000 1.000000
vt 0.968750 1.000000
vt 0.968750 0.500000
vt 0.937500 1.000000
vt 0.937500 0.500000
vt 0.906250 1.000000
vt 0.906250 0.500000
vt 0.875000 1.000000
vt 0.875000 0.500000
vt 0.843750 1.000000
vt 0.843750 0.500000
vt 0.812500 1.000000
vt 0.812500 0.500000
vt 0.781250 1.000000
vt 0.781250 0.500000
vt 0.750000 1.000000
vt 0.750000 0.500000
vt 0.718750 1.000000
vt 0.718750 0.500000
vt 0.687500 1.000000
vt 0.687500 0.500000
vt 0.656250 1.000000
vt 0.656250 0.500000
vt 0.625000 1.000000
vt 0.625000 0.500000
vt 0.593750 1.000000
vt 0.593750 0.500000
vt 0.562500 1.000000
vt 0.562500 0.500000
vt 0.531250 1.000000
vt 0.531250 0.500000
vt 0.500000 1.000000
vt 0.500000 0.500000
vt 0.468750 1.000000
vt 0.468750 0.500000
vt 0.437500 1.000000
vt 0.437500 0.500000
vt 0.406250 1.000000
vt 0.406250 0.500000
vt 0.375000 1.000000
vt 0.375000 0.500000
vt 0.343750 1.000000
vt 0.343750 0.500000
vt 0.312500 1.000000
vt 0.312500 0.500000
vt 0.281250 1.000000
vt 0.281250 0.500000
vt 0.250000 1.000000
vt 0.250000 0.500000
vt 0.218750 1.000000
vt 0.218750 0.500000
vt 0.187500 1.000000
vt 0.187500 0.500000
vt 0.156250 1.000000
vt 0.156250 0.500000
vt 0.125000 1.000000
vt 0.125000 0.500000
vt 0.093750 1.000000
vt 0.093750 0.500000
vt 0.062500 1.000000
vt 0.062500 0.500000
vt 0.296822 0.485388
vt 0.250000 0.490000
vt 0.203178 0.485388
vt 0.158156 0.471731
vt 0.116663 0.449553
vt 0.080294 0.419706
vt 0.050447 0.383337
vt 0.028269 0.341844
vt 0.014612 0.296822
vt 0.010000 0.250000
vt 0.014612 0.203178
vt 0.028269 0.158156
vt 0.050447 0.116663
vt 0.080294 0.080294
vt 0.116663 0.050447
vt 0.158156 0.028269
vt 0.203178 0.014612
vt 0.250000 0.010000
vt 0.296822 0.014612
vt 0.341844 0.028269
vt 0.383337 0.050447
vt 0.419706 0.080294
vt 0.449553 0.116663
vt 0.471731 0.158156
vt 0.485388 0.203178
vt 0.490000 0.250000
vt 0.485388 0.296822
vt 0.471731 0.341844
vt 0.449553 0.383337
vt 0.419706 0.419706
vt 0.383337 0.449553
vt 0.341844 0.471731
vt 0.031250 1.000000
vt 0.031250 0.500000
vt 0.000000 1.000000
vt 0.000000 0.500000
vt 0.750000 0.490000
vt 0.796822 0.485388
vt 0.841844 0.471731
vt 0.883337 0.449553
vt 0.919706 0.419706
vt 0.949553 0.383337
vt 0.971731 0.341844
vt 0.985388 0.296822
vt 0.990000 0.250000
vt 0.985388 0.203178
vt 0.971731 0.158156
vt 0.949553 0.116663
vt 0.919706 0.080294
vt 0.883337 0.050447
vt 0.841844 0.028269
vt 0.796822 0.014612
vt 0.750000 0.010000
vt 0.703178 0.014612
vt 0.658156 0.028269
vt 0.616663 0.050447
vt 0.580294 0.080294
vt 0.550447 0.116663
vt 0.528269 0.158156
vt 0.514612 0.203178
vt 0.510000 0.250000
vt 0.514612 0.296822
vt 0.528269 0.341844
vt 0.550447 0.383337
vt 0.580294 0.419706
vt 0.616663 0.449553
vt 0.658156 0.471731
vt 0.703178 0.485388
vn 0.0706 0.0000 -0.9975
vn 0.2129 0.0000 -0.9771
vn 0.3584 0.0000 -0.9336
vn 0.5078 0.0000 -0.8615
vn 0.6586 0.0000 -0.7525
vn 0.8023 0.0000 -0.5970
vn 0.9212 0.0000 -0.3890
vn 0.9907 0.0000 -0.1358
vn 0.9907 0.0000 0.1358
vn 0.9212 0.0000 0.3890
vn 0.8023 0.0000 0.5970
vn 0.6586 0.0000 0.7525
vn 0.5078 0.0000 0.8615
vn 0.3584 0.0000 0.9336
vn 0.2129 0.0000 0.9771
vn 0.0706 0.0000 0.9975
vn -0.0706 0.0000 0.9975
vn -0.2129 0.0000 0.9771
vn -0.3584 0.0000 0.9336
vn -0.5078 0.0000 0.8615
vn -0.6586 0.0000 0.7525
vn -0.8023 0.0000 0.5970
vn -0.9212 0.0000 0.3890
vn -0.9907 0.0000 0.1358
vn -0.9907 0.0000 -0.1358
vn -0.9212 0.0000 -0.3890
vn -0.8023 0.0000 -0.5970
vn -0.6586 0.0000 -0.7525
vn -0.5078 0.0000 -0.8615
vn -0.3584 0.0000 -0.9336
vn 0.0000 1.0000 -0.0000
vn -0.2129 0.0000 -0.9771
vn -0.0706 0.0000 -0.9975
vn 0.0000 -1.0000 -0.0000
usemtl None
s off
f 1/1/1 2/2/1 4/3/1 3/4/1
f 3/4/2 4/3/2 6/5/2 5/6/2
f 5/6/3 6/5/3 8/7/3 7/8/3
f 7/8/4 8/7/4 10/9/4 9/10/4
f 9/10/5 10/9/5 12/11/5 11/12/5
f 11/12/6 12/11/6 14/13/6 13/14/6
f 13/14/7 14/13/7 16/15/7 15/16/7
f 15/16/8 16/15/8 18/17/8 17/18/8
f 17/18/9 18/17/9 20/19/9 19/20/9
f 19/20/10 20/19/10 22/21/10 21/22/10
f 21/22/11 22/21/11 24/23/11 23/24/11
f 23/24/12 24/23/12 26/25/12 25/26/12
f 25/26/13 26/25/13 28/27/13 27/28/13
f 27/28/14 28/27/14 30/29/14 29/30/14
f 29/30/15 30/29/15 32/31/15 31/32/15
f 31/32/16 32/31/16 34/33/16 33/34/16
f 33/34/17 34/33/17 36/35/17 35/36/17
f 35/36/18 36/35/18 38/37/18 37/38/18
f 37/38/19 38/37/19 40/39/19 39/40/19
f 39/40/20 40/39/20 42/41/20 41/42/20
f 41/42/21 42/41/21 44/43/21 43/44/21
f 43/44/22 44/43/22 46/45/22 45/46/22
f 45/46/23 46/45/23 48/47/23 47/48/23
f 47/48/24 48/47/24 50/49/24 49/50/24
f 49/50/25 50/49/25 52/51/25 51/52/25
f 51/52/26 52/51/26 54/53/26 53/54/26
f 53/54/27 54/53/27 56/55/27 55/56/27
f 55/56/28 56/55/28 58/57/28 57/58/28
f 57/58/29 58/57/29 60/59/29 59/60/29
f 59/60/30 60/59/30 62/61/30 61/62/30
f 4/63/31 2/64/31 64/65/31 62/66/31 60/67/31 58/68/31 56/69/31 54/70/31 52/71/31 50/72/31 48/73/31 46/74/31 44/75/31 42/76/31 40/77/31 38/78/31 36/79/31 34/80/31 32/81/31 30/82/31 28/83/31 26/84/31 24/85/31 22/86/31 20/87/31 18/88/31 16/89/31 14/90/31 12/91/31 10/92/31 8/93/31 6/94/31
f 61/62/32 62/61/32 64/95/32 63/96/32
f 63/96/33 64/95/33 2/97/33 1/98/33
f 1/99/34 3/100/34 5/101/34 7/102/34 9/103/34 11/104/34 13/105/34 15/106/34 17/107/34 19/108/34 21/109/34 23/110/34 25/111/34 27/112/34 29/113/34 31/114/34 33/115/34 35/116/34 37/117/34 39/118/34 41/119/34 43/120/34 45/121/34 47/122/34 49/123/34 51/124/34 53/125/34 55/126/34 57/127/34 59/128/34 61/129/34 63/130/34
o 실린더.001
v 0.663208 3.927914 -1.087210
v 0.663208 0.787792 -1.087210
v 0.747940 3.927914 -1.081215
v 0.747940 0.787792 -1.081215
v 0.829416 3.927914 -1.063461
v 0.829416 0.787792 -1.063461
v 0.904505 3.927914 -1.034631
v 0.904505 0.787792 -1.034631
v 0.970320 3.927914 -0.995832
v 0.970320 0.787792 -0.995832
v 1.024334 3.927914 -0.948555
v 1.024334 0.787792 -0.948555
v 1.064470 3.927914 -0.894617
v 1.064470 0.787792 -0.894617
v 1.089185 3.927914 -0.836092
v 1.089185 0.787792 -0.836092
v 1.097531 3.927914 -0.775227
v 1.097531 0.787792 -0.775227
v 1.089185 3.927914 -0.714362
v 1.089185 0.787792 -0.714362
v 1.064470 3.927914 -0.655836
v 1.064470 0.787792 -0.655836
v 1.024334 3.927914 -0.601898
v 1.024334 0.787792 -0.601898
v 0.970320 3.927914 -0.554622
v 0.970320 0.787792 -0.554622
v 0.904505 3.927914 -0.515822
v 0.904505 0.787792 -0.515822
v 0.829416 3.927914 -0.486992
v 0.829416 0.787792 -0.486992
v 0.747940 3.927914 -0.469238
v 0.747940 0.787792 -0.469238
v 0.663208 3.927914 -0.463244
v 0.663208 0.787792 -0.463244
v 0.578475 3.927914 -0.469238
v 0.578475 0.787792 -0.469238
v 0.496999 3.927914 -0.486992
v 0.496999 0.787792 -0.486992
v 0.421911 3.927914 -0.515822
v 0.421911 0.787792 -0.515822
v 0.356095 3.927914 -0.554621
v 0.356095 0.787792 -0.554621
v 0.302081 3.927914 -0.601898
v 0.302081 0.787792 -0.601898
v 0.261945 3.927914 -0.655836
v 0.261945 0.787792 -0.655836
v 0.237230 3.927914 -0.714362
v 0.237230 0.787792 -0.714362
v 0.228885 3.927914 -0.775227
v 0.228885 0.787792 -0.775227
v 0.237230 3.927914 -0.836092
v 0.237230 0.787792 -0.836092
v 0.261945 3.927914 -0.894617
v 0.261945 0.787792 -0.894617
v 0.302081 3.927914 -0.948555
v 0.302081 0.787792 -0.948555
v 0.356095 3.927914 -0.995832
v 0.356095 0.787792 -0.995832
v 0.421911 3.927914 -1.034631
v 0.421911 0.787792 -1.034631
v 0.496999 3.927914 -1.063461
v 0.496999 0.787792 -1.063461
v 0.578475 3.927914 -1.081215
v 0.578475 0.787792 -1.081215
vt 1.000000 0.500000
vt 0.968750 0.500000
vt 0.968750 1.000000
vt 1.000000 1.000000
vt 0.937500 0.500000
vt 0.937500 1.000000
vt 0.906250 0.500000
vt 0.906250 1.000000
vt 0.875000 0.500000
vt 0.875000 1.000000
vt 0.843750 0.500000
vt 0.843750 1.000000
vt 0.812500 0.500000
vt 0.812500 1.000000
vt 0.781250 0.500000
vt 0.781250 1.000000
vt 0.750000 0.500000
vt 0.750000 1.000000
vt 0.718750 0.500000
vt 0.718750 1.000000
vt 0.687500 0.500000
vt 0.687500 1.000000
vt 0.656250 0.500000
vt 0.656250 1.000000
vt 0.625000 0.500000
vt 0.625000 1.000000
vt 0.593750 0.500000
vt 0.593750 1.000000
vt 0.562500 0.500000
vt 0.562500 1.000000
vt 0.531250 0.500000
vt 0.531250 1.000000
vt 0.500000 0.500000
vt 0.500000 1.000000
vt 0.468750 0.500000
vt 0.468750 1.000000
vt 0.437500 0.500000
vt 0.437500 1.000000
vt 0.406250 0.500000
vt 0.406250 1.000000
vt 0.375000 0.500000
vt 0.375000 1.000000
vt 0.343750 0.500000
vt 0.343750 1.000000
vt 0.312500 0.500000
vt 0.312500 1.000000
vt 0.281250 0.500000
vt 0.281250 1.000000
vt 0.250000 0.500000
vt 0.250000 1.000000
vt 0.218750 0.500000
vt 0.218750 1.000000
vt 0.187500 0.500000
vt 0.187500 1.000000
vt 0.156250 0.500000
vt 0.156250 1.000000
vt 0.125000 0.500000
vt 0.125000 1.000000
vt 0.093750 0.500000
vt 0.093750 1.000000
vt 0.062500 0.500000
vt 0.062500 1.000000
vt 0.296822 0.485388
vt 0.341844 0.471731
vt 0.383337 0.449553
vt 0.419706 0.419706
vt 0.449553 0.383337
vt 0.471731 0.341844
vt 0.485388 0.296822
vt 0.490000 0.250000
vt 0.485388 0.203178
vt 0.471731 0.158156
vt 0.449553 0.116663
vt 0.419706 0.080294
vt 0.383337 0.050447
vt 0.341844 0.028269
vt 0.296822 0.014612
vt 0.250000 0.010000
vt 0.203178 0.014612
vt 0.158156 0.028269
vt 0.116663 0.050447
vt 0.080294 0.080294
vt 0.050447 0.116663
vt 0.028269 0.158156
vt 0.014612 0.203178
vt 0.010000 0.250000
vt 0.014612 0.296822
vt 0.028269 0.341844
vt 0.050447 0.383337
vt 0.080294 0.419706
vt 0.116663 0.449553
vt 0.158156 0.471731
vt 0.203178 0.485388
vt 0.250000 0.490000
vt 0.031250 0.500000
vt 0.031250 1.000000
vt 0.000000 0.500000
vt 0.000000 1.000000
vt 0.750000 0.490000
vt 0.703178 0.485388
vt 0.658156 0.471731
vt 0.616663 0.449553
vt 0.580294 0.419706
vt 0.550447 0.383337
vt 0.528269 0.341844
vt 0.514612 0.296822
vt 0.510000 0.250000
vt 0.514612 0.203178
vt 0.528269 0.158156
vt 0.550447 0.116663
vt 0.580294 0.080294
vt 0.616663 0.050447
vt 0.658156 0.028269
vt 0.703178 0.014612
vt 0.750000 0.010000
vt 0.796822 0.014612
vt 0.841844 0.028269
vt 0.883337 0.050447
vt 0.919706 0.080294
vt 0.949553 0.116663
vt 0.971731 0.158156
vt 0.985388 0.203178
vt 0.990000 0.250000
vt 0.985388 0.296822
vt 0.971731 0.341844
vt 0.949553 0.383337
vt 0.919706 0.419706
vt 0.883337 0.449553
vt 0.841844 0.471731
vt 0.796822 0.485388
vn 0.0706 0.0000 -0.9975
vn 0.2129 0.0000 -0.9771
vn 0.3584 0.0000 -0.9336
vn 0.5078 0.0000 -0.8615
vn 0.6586 0.0000 -0.7525
vn 0.8023 0.0000 -0.5970
vn 0.9212 0.0000 -0.3890
vn 0.9907 0.0000 -0.1358
vn 0.9907 0.0000 0.1358
vn 0.9212 0.0000 0.3890
vn 0.8023 0.0000 0.5970
vn 0.6586 0.0000 0.7525
vn 0.5078 0.0000 0.8615
vn 0.3584 0.0000 0.9336
vn 0.2129 0.0000 0.9771
vn 0.0706 0.0000 0.9975
vn -0.0706 0.0000 0.9975
vn -0.2129 0.0000 0.9771
vn -0.3584 0.0000 0.9336
vn -0.5078 0.0000 0.8615
vn -0.6586 0.0000 0.7525
vn -0.8023 0.0000 0.5970
vn -0.9212 0.0000 0.3890
vn -0.9907 0.0000 0.1358
vn -0.9907 0.0000 -0.1358
vn -0.9212 0.0000 -0.3890
vn -0.8023 0.0000 -0.5970
vn -0.6586 0.0000 -0.7525
vn -0.5078 0.0000 -0.8615
vn -0.3584 0.0000 -0.9336
vn 0.0000 -1.0000 -0.0000
vn -0.2129 0.0000 -0.9771
vn -0.0706 0.0000 -0.9975
vn 0.0000 1.0000 -0.0000
usemtl None
s off
f 65/131/35 67/132/35 68/133/35 66/134/35
f 67/132/36 69/135/36 70/136/36 68/133/36
f 69/135/37 71/137/37 72/138/37 70/136/37
f 71/137/38 73/139/38 74/140/38 72/138/38
f 73/139/39 75/141/39 76/142/39 74/140/39
f 75/141/40 77/143/40 78/144/40 76/142/40
f 77/143/41 79/145/41 80/146/41 78/144/41
f 79/145/42 81/147/42 82/148/42 80/146/42
f 81/147/43 83/149/43 84/150/43 82/148/43
f 83/149/44 85/151/44 86/152/44 84/150/44
f 85/151/45 87/153/45 88/154/45 86/152/45
f 87/153/46 89/155/46 90/156/46 88/154/46
f 89/155/47 91/157/47 92/158/47 90/156/47
f 91/157/48 93/159/48 94/160/48 92/158/48
f 93/159/49 95/161/49 96/162/49 94/160/49
f 95/161/50 97/163/50 98/164/50 96/162/50
f 97/163/51 99/165/51 100/166/51 98/164/51
f 99/165/52 101/167/52 102/168/52 100/166/52
f 101/167/53 103/169/53 104/170/53 102/168/53
f 103/169/54 105/171/54 106/172/54 104/170/54
f 105/171/55 107/173/55 108/174/55 106/172/55
f 107/173/56 109/175/56 110/176/56 108/174/56
f 109/175/57 111/177/57 112/178/57 110/176/57
f 111/177/58 113/179/58 114/180/58 112/178/58
f 113/179/59 115/181/59 116/182/59 114/180/59
f 115/181/60 117/183/60 118/184/60 116/182/60
f 117/183/61 119/185/61 120/186/61 118/184/61
f 119/185/62 121/187/62 122/188/62 120/186/62
f 121/187/63 123/189/63 124/190/63 122/188/63
f 123/189/64 125/191/64 126/192/64 124/190/64
f 68/193/65 70/194/65 72/195/65 74/196/65 76/197/65 78/198/65 80/199/65 82/200/65 84/201/65 86/202/65 88/203/65 90/204/65 92/205/65 94/206/65 96/207/65 98/208/65 100/209/65 102/210/65 104/211/65 106/212/65 108/213/65 110/214/65 112/215/65 114/216/65 116/217/65 118/218/65 120/219/65 122/220/65 124/221/65 126/222/65 128/223/65 66/224/65
f 125/191/66 127/225/66 128/226/66 126/192/66
f 127/225/67 65/227/67 66/228/67 128/226/67
f 65/229/68 127/230/68 125/231/68 123/232/68 121/233/68 119/234/68 117/235/68 115/236/68 113/237/68 111/238/68 109/239/68 107/240/68 105/241/68 103/242/68 101/243/68 99/244/68 97/245/68 95/246/68 93/247/68 91/248/68 89/249/68 87/250/68 85/251/68 83/252/68 81/253/68 79/254/68 77/255/68 75/256/68 73/257/68 71/258/68 69/259/68 67/260/68
o 실린더.002
v 0.663208 3.615973 -1.427371
v 0.663208 4.920261 -1.427371
v 0.840325 3.615973 -1.414840
v 0.840325 4.920261 -1.414840
v 1.010636 3.615973 -1.377730
v 1.010636 4.920261 -1.377730
v 1.167596 3.615973 -1.317465
v 1.167596 4.920261 -1.317465
v 1.305172 3.615973 -1.236362
v 1.305172 4.920261 -1.236362
v 1.418078 3.615973 -1.137539
v 1.418078 4.920261 -1.137539
v 1.501974 3.615973 -1.024792
v 1.501974 4.920261 -1.024792
v 1.553638 3.615973 -0.902454
v 1.553638 4.920261 -0.902454
v 1.571082 3.615973 -0.775227
v 1.571082 4.920261 -0.775227
v 1.553638 3.615973 -0.648000
v 1.553638 4.920261 -0.648000
v 1.501975 3.615973 -0.525662
v 1.501975 4.920261 -0.525662
v 1.418078 3.615973 -0.412915
v 1.418078 4.920261 -0.412915
v 1.305172 3.615973 -0.314091
v 1.305172 4.920261 -0.314091
v 1.167596 3.615973 -0.232988
v 1.167596 4.920261 -0.232988
v 1.010636 3.615973 -0.172724
v 1.010636 4.920261 -0.172724
v 0.840325 3.615973 -0.135613
v 0.840325 4.920261 -0.135613
v 0.663208 3.615973 -0.123082
v 0.663208 4.920261 -0.123082
v 0.486090 3.615973 -0.135613
v 0.486090 4.920261 -0.135613
v 0.315779 3.615973 -0.172724
v 0.315779 4.920261 -0.172724
v 0.158819 3.615973 -0.232989
v 0.158819 4.920261 -0.232989
v 0.021243 3.615973 -0.314091
v 0.021243 4.920261 -0.314091
v -0.091662 3.615973 -0.412915
v -0.091662 4.920261 -0.412915
v -0.175559 3.615973 -0.525662
v -0.175559 4.920261 -0.525662
v -0.227222 3.615973 -0.648000
v -0.227222 4.920261 -0.648000
v -0.244667 3.615973 -0.775227
v -0.244667 4.920261 -0.775227
v -0.227222 3.615973 -0.902454
v -0.227222 4.920261 -0.902454
v -0.175559 3.615973 -1.024792
v -0.175559 4.920261 -1.024792
v -0.091663 3.615973 -1.137539
v -0.091663 4.920261 -1.137539
v 0.021243 3.615973 -1.236362
v 0.021243 4.920261 -1.236362
v 0.158819 3.615973 -1.317465
v 0.158819 4.920261 -1.317465
v 0.315779 3.615973 -1.377730
v 0.315779 4.920261 -1.377730
v 0.486090 3.615973 -1.414840
v 0.486090 4.920261 -1.414840
vt 1.000000 0.500000
vt 1.000000 1.000000
vt 0.968750 1.000000
vt 0.968750 0.500000
vt 0.937500 1.000000
vt 0.937500 0.500000
vt 0.906250 1.000000
vt 0.906250 0.500000
vt 0.875000 1.000000
vt 0.875000 0.500000
vt 0.843750 1.000000
vt 0.843750 0.500000
vt 0.812500 1.000000
vt 0.812500 0.500000
vt 0.781250 1.000000
vt 0.781250 0.500000
vt 0.750000 1.000000
vt 0.750000 0.500000
vt 0.718750 1.000000
vt 0.718750 0.500000
vt 0.687500 1.000000
vt 0.687500 0.500000
vt 0.656250 1.000000
vt 0.656250 0.500000
vt 0.625000 1.000000
vt 0.625000 0.500000
vt 0.593750 1.000000
vt 0.593750 0.500000
vt 0.562500 1.000000
vt 0.562500 0.500000
vt 0.531250 1.000000
vt 0.531250 0.500000
vt 0.500000 1.000000
vt 0.500000 0.500000
vt 0.468750 1.000000
vt 0.468750 0.500000
vt 0.437500 1.000000
vt 0.437500 0.500000
vt 0.406250 1.000000
vt 0.406250 0.500000
vt 0.375000 1.000000
vt 0.375000 0.500000
vt 0.343750 1.000000
vt 0.343750 0.500000
vt 0.312500 1.000000
vt 0.312500 0.500000
vt 0.281250 1.000000
vt 0.281250 0.500000
vt 0.250000 1.000000
vt 0.250000 0.500000
vt 0.218750 1.000000
vt 0.218750 0.500000
vt 0.187500 1.000000
vt 0.187500 0.500000
vt 0.156250 1.000000
vt 0.156250 0.500000
vt 0.125000 1.000000
vt 0.125000 0.500000
vt 0.093750 1.000000
vt 0.093750 0.500000
vt 0.062500 1.000000
vt 0.062500 0.500000
vt 0.296822 0.485388
vt 0.250000 0.490000
vt 0.203178 0.485388
vt 0.158156 0.471731
vt 0.116663 0.449553
vt 0.080294 0.419706
vt 0.050447 0.383337
vt 0.028269 0.341844
vt 0.014612 0.296822
vt 0.010000 0.250000
vt 0.014612 0.203178
vt 0.028269 0.158156
vt 0.050447 0.116663
vt 0.080294 0.080294
vt 0.116663 0.050447
vt 0.158156 0.028269
vt 0.203178 0.014612
vt 0.250000 0.010000
vt 0.296822 0.014612
vt 0.341844 0.028269
vt 0.383337 0.050447
vt 0.419706 0.080294
vt 0.449553 0.116663
vt 0.471731 0.158156
vt 0.485388 0.203178
vt 0.490000 0.250000
vt 0.485388 0.296822
vt 0.471731 0.341844
vt 0.449553 0.383337
vt 0.419706 0.419706
vt 0.383337 0.449553
vt 0.341844 0.471731
vt 0.031250 1.000000
vt 0.031250 0.500000
vt 0.000000 1.000000
vt 0.000000 0.500000
vt 0.750000 0.490000
vt 0.796822 0.485388
vt 0.841844 0.471731
vt 0.883337 0.449553
vt 0.919706 0.419706
vt 0.949553 0.383337
vt 0.971731 0.341844
vt 0.985388 0.296822
vt 0.990000 0.250000
vt 0.985388 0.203178
vt 0.971731 0.158156
vt 0.949553 0.116663
vt 0.919706 0.080294
vt 0.883337 0.050447
vt 0.841844 0.028269
vt 0.796822 0.014612
vt 0.750000 0.010000
vt 0.703178 0.014612
vt 0.658156 0.028269
vt 0.616663 0.050447
vt 0.580294 0.080294
vt 0.550447 0.116663
vt 0.528269 0.158156
vt 0.514612 0.203178
vt 0.510000 0.250000
vt 0.514612 0.296822
vt 0.528269 0.341844
vt 0.550447 0.383337
vt 0.580294 0.419706
vt 0.616663 0.449553
vt 0.658156 0.471731
vt 0.703178 0.485388
vn 0.0706 0.0000 -0.9975
vn 0.2129 0.0000 -0.9771
vn 0.3584 0.0000 -0.9336
vn 0.5078 0.0000 -0.8615
vn 0.6586 0.0000 -0.7525
vn 0.8023 0.0000 -0.5970
vn 0.9212 0.0000 -0.3890
vn 0.9907 0.0000 -0.1358
vn 0.9907 0.0000 0.1358
vn 0.9212 0.0000 0.3890
vn 0.8023 0.0000 0.5970
vn 0.6586 0.0000 0.7525
vn 0.5078 0.0000 0.8615
vn 0.3584 0.0000 0.9336
vn 0.2129 0.0000 0.9771
vn 0.0706 0.0000 0.9975
vn -0.0706 0.0000 0.9975
vn -0.2129 0.0000 0.9771
vn -0.3584 0.0000 0.9336
vn -0.5078 0.0000 0.8615
vn -0.6586 0.0000 0.7525
vn -0.8023 0.0000 0.5970
vn -0.9212 0.0000 0.3890
vn -0.9907 0.0000 0.1358
vn -0.9907 0.0000 -0.1358
vn -0.9212 0.0000 -0.3890
vn -0.8023 0.0000 -0.5970
vn -0.6586 0.0000 -0.7525
vn -0.5078 0.0000 -0.8615
vn -0.3584 0.0000 -0.9336
vn 0.0000 1.0000 0.0000
vn -0.2129 0.0000 -0.9771
vn -0.0706 0.0000 -0.9975
vn 0.0000 -1.0000 0.0000
usemtl None
s off
f 129/261/69 130/262/69 132/263/69 131/264/69
f 131/264/70 132/263/70 134/265/70 133/266/70
f 133/266/71 134/265/71 136/267/71 135/268/71
f 135/268/72 136/267/72 138/269/72 137/270/72
f 137/270/73 138/269/73 140/271/73 139/272/73
f 139/272/74 140/271/74 142/273/74 141/274/74
f 141/274/75 142/273/75 144/275/75 143/276/75
f 143/276/76 144/275/76 146/277/76 145/278/76
f 145/278/77 146/277/77 148/279/77 147/280/77
f 147/280/78 148/279/78 150/281/78 149/282/78
f 149/282/79 150/281/79 152/283/79 151/284/79
f 151/284/80 152/283/80 154/285/80 153/286/80
f 153/286/81 154/285/81 156/287/81 155/288/81
f 155/288/82 156/287/82 158/289/82 157/290/82
f 157/290/83 158/289/83 160/291/83 159/292/83
f 159/292/84 160/291/84 162/293/84 161/294/84
f 161/294/85 162/293/85 164/295/85 163/296/85
f 163/296/86 164/295/86 166/297/86 165/298/86
f 165/298/87 166/297/87 168/299/87 167/300/87
f 167/300/88 168/299/88 170/301/88 169/302/88
f 169/302/89 170/301/89 172/303/89 171/304/89
f 171/304/90 172/303/90 174/305/90 173/306/90
f 173/306/91 174/305/91 176/307/91 175/308/91
f 175/308/92 176/307/92 178/309/92 177/310/92
f 177/310/93 178/309/93 180/311/93 179/312/93
f 179/312/94 180/311/94 182/313/94 181/314/94
f 181/314/95 182/313/95 184/315/95 183/316/95
f 183/316/96 184/315/96 186/317/96 185/318/96
f 185/318/97 186/317/97 188/319/97 187/320/97
f 187/320/98 188/319/98 190/321/98 189/322/98
f 132/323/99 130/324/99 192/325/99 190/326/99 188/327/99 186/328/99 184/329/99 182/330/99 180/331/99 178/332/99 176/333/99 174/334/99 172/335/99 170/336/99 168/337/99 166/338/99 164/339/99 162/340/99 160/341/99 158/342/99 156/343/99 154/344/99 152/345/99 150/346/99 148/347/99 146/348/99 144/349/99 142/350/99 140/351/99 138/352/99 136/353/99 134/354/99
f 189/322/100 190/321/100 192/355/100 191/356/100
f 191/356/101 192/355/101 130/357/101 129/358/101
f 129/359/102 131/360/102 133/361/102 135/362/102 137/363/102 139/364/102 141/365/102 143/366/102 145/367/102 147/368/102 149/369/102 151/370/102 153/371/102 155/372/102 157/373/102 159/374/102 161/375/102 163/376/102 165/377/102 167/378/102 169/379/102 171/380/102 173/381/102 175/382/102 177/383/102 179/384/102 181/385/102 183/386/102 185/387/102 187/388/102 189/389/102 191/390/102
